<?xml version="1.0" encoding="utf-8" ?><svg xmlns="http://www.w3.org/2000/svg" xmlns:xlink="http://www.w3.org/1999/xlink" width="2048" height="2048" viewBox="0 0 2048 2048"><defs><linearGradient id="gradient_0" gradientUnits="userSpaceOnUse" x1="331.92075" y1="342.29163" x2="144.08731" y2="201.38385"><stop offset="0" stop-color="#7F10F7"/><stop offset="1" stop-color="#D20BF4"/></linearGradient></defs><path fill="url(#gradient_0)" transform="scale(4 4)" d="M318.681 426.299C315.196 426.576 310.389 426.31 306.823 426.306L170.708 426.305C157.795 426.326 140.21 429.399 140.15 411.269L140.165 213.227C140.159 197.812 148.463 197.389 161.401 197.377L417.525 197.375C444.395 197.371 446.025 198.588 446.042 224.011L446.029 247.658L446.037 397.774C446.04 406.67 448.415 425.345 434.814 426.075C430.543 426.492 426.178 426.327 421.878 426.312L318.681 426.299ZM438.145 414.794C438.311 408.757 438.15 401.956 438.15 395.845L438.145 210.887C436.639 205.238 432.541 205.024 427.521 204.997L171.292 204.997C163.294 204.989 147.078 201.354 147.93 212.386L147.977 374.775C147.977 381.998 145.01 415.638 151.361 418.146C153.941 419.164 176.137 418.605 180.533 418.605L313.071 418.599C316.092 418.598 324.747 418.36 327.294 418.604C329.501 418.466 333.505 418.593 335.874 418.594L423.563 418.626C429.465 418.635 434.21 419.94 438.145 414.794Z"/><path fill="#9F14F5" transform="scale(4 4)" d="M346.298 247.658L382.367 247.658C388.112 247.656 394.752 247.455 400.376 247.658C401.955 248.739 402.633 249.786 402.8 251.763C403.244 256.995 394.527 255.564 390.995 255.559L320.375 255.55L283.364 255.539C278.271 255.54 273.209 255.548 268.129 255.685C264.847 255.585 256.934 247.66 275.949 247.654L346.298 247.658Z"/><path fill="#9F14F5" transform="scale(4 4)" d="M203.288 288.979C215.86 289.697 197.268 304.711 194.277 308.519L194.081 308.773L221.599 308.757C226.653 308.757 231.575 308.659 236.636 308.982C242.59 309.362 241.095 316.142 237.003 316.574C233.738 316.919 228.989 316.716 225.617 316.714L200.875 316.697C198.741 316.793 196.243 316.714 194.081 316.697C197.291 319.295 208.065 328.537 207.742 331.277C206.184 344.504 182.306 315.637 181.177 313.774C178.904 310.024 189.728 301.675 191.999 299.415C195.425 296.004 198.869 291.113 203.288 288.979Z"/><path fill="#9F14F5" transform="scale(4 4)" d="M216.638 223.201C219.688 223.303 239.241 242.75 240.659 245.824C241.86 248.426 238.294 250.246 236.425 250.962C232.469 249.076 225.199 240.175 221.023 236.524C220.663 242.838 222.7 266.759 219.383 269.901C211.455 273.429 213.307 262.69 213.319 258.355L213.333 237.36L212.151 238.348C207.339 242.351 197.926 256.782 194.081 246.503C195.492 243.218 213.202 225.264 216.638 223.201Z"/><path fill="#2400EE" transform="scale(4 4)" d="M326.412 370.258C339.9 369.861 399.316 369.514 401.335 370.734C404.904 372.89 404.171 376.849 400.376 377.96C392.031 377.961 327.5 378.478 325.35 377.527C321.493 375.822 322.755 371.114 326.412 370.258Z"/><path fill="#9F14F5" transform="scale(4 4)" d="M239.729 370.258L295.514 370.248C306.752 370.252 305.331 376.966 300.53 377.96C294.151 378.161 239.408 378.258 238.146 377.59C234.852 375.85 235.744 370.911 239.729 370.258Z"/><path fill="#9F14F5" transform="scale(4 4)" d="M343.286 308.773L383.895 308.761C389.026 308.752 395.83 308.474 400.752 308.98C403.68 309.281 405.272 314.429 400.376 316.697C396.561 316.843 391.739 316.708 387.869 316.706L350.552 316.721C349.278 316.722 344.232 316.878 343.371 316.521C339.584 314.952 339.585 310.597 343.286 308.773Z"/><path fill="#9F14F5" transform="scale(4 4)" d="M264.297 308.773L312.744 308.743C314.884 308.719 317.323 308.576 319.436 308.767C323.666 309.148 323.306 314.823 320.375 316.697C305.488 317.252 278.678 317.846 263.967 316.487C261.393 316.249 259.24 311.002 264.297 308.773Z"/><path fill="#9F14F5" transform="scale(4 4)" d="M216.638 351.523C218.797 351.32 219.88 351.642 220.977 353.606C221.286 356.509 221.191 395.061 220.753 396.101C220.199 397.418 219.139 397.828 217.885 398.33C215.061 398.401 213.583 396.638 213.528 393.868C213.264 380.665 213.047 367.275 213.583 354.099C213.629 352.975 215.799 351.944 216.638 351.523Z"/><path fill="#9F14F5" transform="scale(4 4)" d="M193.415 370.258C208.735 370.021 203.595 377.865 198.562 377.96C195.724 378.018 191.236 378.567 188.834 376.882C185.258 374.373 189.096 370.623 193.415 370.258Z"/><path fill="#2400EE" transform="scale(4 4)" d="M432.282 204.995C432.633 199.577 432.557 194.858 439.997 200.739C451.019 209.452 442.349 241.761 446.029 247.658L446.037 397.774C446.04 406.67 448.415 425.345 434.814 426.075C430.543 426.492 426.178 426.327 421.878 426.312L318.681 426.299C315.207 424.144 274.787 428.337 269.631 425.459C268.7 424.939 268.7 421.536 267.506 420.418C266.12 419.121 273.235 418.573 274.04 418.63C284.886 419.395 317.342 419.952 327.294 418.604C329.501 418.466 333.505 418.593 335.874 418.594L423.563 418.626C429.465 418.635 434.21 419.94 438.145 414.794C438.311 408.757 438.15 401.956 438.15 395.845L438.145 210.887C438.228 209.849 438.248 209.57 438.145 208.545C436.411 206.178 435.289 205.359 432.282 204.995Z"/><path fill="#D400F1" transform="scale(4 4)" d="M73.4618 152.486C73.464 160.293 74.1395 213.902 72.8185 217.134C71.5512 220.234 67.0334 219.62 66.2622 216.535C65.153 212.098 65.7435 204.315 65.7509 199.469L65.75 134.162C65.749 114.987 63.4536 93.0037 87.6484 86.5153C93.6893 84.8954 100.923 85.3493 107.215 85.3563L334.927 85.3678C345.341 85.3601 359.084 83.727 368.29 88.9267C386.022 98.4833 382.975 115.193 382.973 132.164L382.966 173.448C385.477 170.595 395.198 160.153 397.982 159.898C400.76 159.643 402.918 163.176 401.279 165.472C398.933 168.757 382.733 186.082 378.624 186.397C374.65 184.36 357.707 166.856 357.147 165.029C356.08 161.546 360.208 158.641 363.063 160.798C366.038 163.046 373.014 170.434 375.518 173.448C375.54 167.054 375.2 158.597 375.518 152.486L332.622 152.486L73.4618 152.486ZM347.814 144.992C351.641 144.512 371.481 144.586 375.518 144.992L375.535 124.079C375.538 102.846 372.968 94.3141 350.422 93.1718L101.372 93.1524C66.1372 92.9261 73.7518 119.149 73.4618 144.992L338.295 144.975C341.018 144.97 345.227 144.825 347.814 144.992Z"/><path fill="#9F14F5" transform="scale(4 4)" d="M184.855 106.615C192.357 105.58 199.291 110.784 200.393 118.277C201.496 125.769 196.354 132.75 188.872 133.92C181.294 135.105 174.204 129.883 173.087 122.294C171.971 114.706 177.256 107.663 184.855 106.615ZM187.623 126.095C189.751 125.787 191.539 124.335 192.275 122.315C193.012 120.294 192.58 118.032 191.149 116.427C189.719 114.821 187.522 114.13 185.43 114.63C182.392 115.355 180.461 118.342 181.048 121.41C181.635 124.479 184.531 126.542 187.623 126.095Z"/><path fill="#D400F1" transform="scale(4 4)" d="M146.693 106.638C154.265 105.974 160.942 111.57 161.612 119.141C162.281 126.712 156.69 133.393 149.12 134.069C141.541 134.745 134.851 129.146 134.181 121.567C133.51 113.989 139.114 107.303 146.693 106.638ZM149.13 126.032C152.33 125.342 154.355 122.175 153.638 118.981C152.921 115.786 149.738 113.788 146.549 114.532C143.399 115.267 141.43 118.405 142.138 121.561C142.846 124.718 145.967 126.713 149.13 126.032Z"/><path fill="#D400F1" transform="scale(4 4)" d="M106.513 106.904C113.931 105.569 121.015 110.536 122.29 117.965C123.565 125.393 118.542 132.437 111.103 133.653C103.748 134.854 96.8004 129.9 95.5401 122.555C94.2797 115.21 99.1783 108.223 106.513 106.904ZM110.497 126.075C118.04 121.849 115.073 114.086 107.525 114.529C99.7906 117.691 103.155 126.881 110.497 126.075Z"/><path fill="#9F14F5" transform="scale(4 4)" d="M318.681 116.64L336.127 116.616C338.52 116.603 345.385 116.039 347.217 117.453C349.933 119.575 348.783 123.978 345.455 124.423C342.007 124.885 338.015 124.646 334.543 124.642L313.774 124.625L296.776 124.648C293.78 124.649 287.193 125.148 284.645 123.636C282.549 122.392 282.579 117.205 285.787 116.857C289.41 116.464 293.316 116.621 297.017 116.622L318.681 116.64Z"/><path fill="#9F14F5" transform="scale(4 4)" d="M368.29 88.9267C386.022 98.4833 382.975 115.193 382.973 132.164L382.966 173.448C385.477 170.595 395.198 160.153 397.982 159.898C400.76 159.643 402.918 163.176 401.279 165.472C398.933 168.757 382.733 186.082 378.624 186.397C374.65 184.36 357.707 166.856 357.147 165.029C356.08 161.546 360.208 158.641 363.063 160.798C366.038 163.046 373.014 170.434 375.518 173.448C375.54 167.054 375.2 158.597 375.518 152.486L332.622 152.486C334.974 151.532 369.305 152.009 373.976 151.944C374.25 151.328 373.505 151.382 373.445 150.414C378.857 149.236 376.575 146.013 376.302 143.749L376.123 144.992C375.785 143.414 376.018 141.483 376.123 139.846C376.406 140.675 376.387 141.253 376.437 142.119C376.577 140.227 378.917 137.91 380.492 139.737L380.905 139.331C384.559 145.262 380.766 156.137 382.404 131.564C383.481 115.404 384.648 98.7379 368.474 89.5209C368.413 89.3228 368.351 89.1248 368.29 88.9267Z"/><path fill="#9F14F5" transform="scale(4 4)" d="M350.422 93.1718C348.373 92.5423 334.657 93.4401 331.038 93.0486C345.484 93.523 364.954 89.2712 373.006 103.047L373.155 103.048C373.436 101.368 376.193 100.616 377.694 100.343C378.737 100.979 380.795 105.465 381.089 106.715C381.456 108.274 380.471 120.611 378.433 119.238L378.157 119.506C377.681 118.679 377.34 115.766 377.26 114.732L377.025 114.453C375.086 116.762 376.181 135.242 376.123 139.846C376.018 141.483 375.785 143.414 376.123 144.992L375.896 145.584C375.214 145.797 375.339 145.649 374.784 145.485C371.729 144.581 339.88 144.859 337.366 145.209C339.346 145.262 346.107 145.4 347.814 144.992C351.641 144.512 371.481 144.586 375.518 144.992L375.535 124.079C375.538 102.846 372.968 94.3141 350.422 93.1718Z"/><defs><linearGradient id="gradient_1" gradientUnits="userSpaceOnUse" x1="57.726864" y1="340.5769" x2="119.22182" y2="375.09085"><stop offset="0" stop-color="#EE0BE5"/><stop offset="1" stop-color="#A810FD"/></linearGradient></defs><path fill="url(#gradient_1)" transform="scale(4 4)" d="M68.5078 322.291C81.0661 321.217 66.2208 347.442 79.0402 359.998C84.7586 365.599 91.7675 365.221 99.1867 365.217L111.509 365.198C108.997 362.534 96.9516 353.001 98.6369 349.55C102.875 340.871 117.643 360.214 121.725 364.436C124.799 367.615 123.94 368.996 121.429 371.779C119.525 373.887 99.6692 397.816 97.8224 388.082C96.941 383.437 106.294 376.07 109.285 372.822C93.8834 372.862 80.6182 375.296 70.4759 361.062C64.2348 352.303 66.0593 341.723 65.7512 331.647C65.6461 328.212 65.3333 324.38 68.5078 322.291Z"/><path fill="#D400F1" transform="scale(4 4)" d="M68.5078 276.759C76.2555 275.73 73.5094 291.828 73.4778 297.443C73.4582 300.927 74.1718 302.969 71.0307 304.974C69.0585 305.056 67.6004 304.837 66.5829 302.873C65.6309 301.035 63.1429 279.481 68.5078 276.759Z"/><path fill="#D400F1" transform="scale(4 4)" d="M69.1054 234.72C76.0609 234.142 73.163 252.942 72.7542 257.213C72.6461 258.341 70.7253 259.136 69.8723 259.526C63.437 258.198 64.0896 237.474 69.1054 234.72Z"/></svg>