<?xml version="1.0" encoding="utf-8" ?><svg xmlns="http://www.w3.org/2000/svg" xmlns:xlink="http://www.w3.org/1999/xlink" width="2048" height="2048" viewBox="0 0 2048 2048"><path fill="#FF8C00" transform="scale(4 4)" d="M328.611 251.497C360.879 247.86 391.41 276.622 391.95 308.453C392.277 327.773 385.915 340.693 373.063 354.474C360.763 364.678 350.324 369.177 334.622 370.077C328.573 370.423 325.462 370.684 325.563 363.391C325.448 356.73 325.477 349.96 325.477 343.253L325.512 256.232C325.53 253.809 326.287 252.347 328.611 251.497ZM333.251 309.755C338.433 309.726 344.751 309.486 349.881 309.861C354.756 310.216 355.09 314.731 351.041 317.569C347.166 317.904 337.814 317.559 333.251 317.569L333.251 362.755C341.625 362.633 349.978 360.491 357.324 356.434C405.764 328.432 383.512 258.282 333.251 258.966L333.251 309.755Z"/><defs><linearGradient id="gradient_0" gradientUnits="userSpaceOnUse" x1="223.17691" y1="257.7114" x2="363.86212" y2="476.28973"><stop offset="0" stop-color="#FF6347"/><stop offset="1" stop-color="#FF4500"/></linearGradient></defs><path fill="url(#gradient_0)" transform="scale(4 4)" d="M433.036 187.581C448.073 188.759 446.743 205.173 446.719 215.708L446.71 404.932C446.731 422.003 447.806 430.44 426.25 430.36L94.0706 430.369C83.4527 430.385 67.8292 432.079 65.4726 417.175C64.8867 413.469 65.0306 408.678 65.028 404.834L65.0218 369.205C65.0212 366.946 64.8689 362.81 65.0328 360.704C65.4445 359.128 66.1633 357.9 67.8212 357.371C74.8403 355.135 72.7668 366.098 72.8193 370.083L72.8121 398.025C72.811 409.123 69.3938 422.596 83.7471 422.718L426.574 422.777C436.706 422.865 439.303 423.063 439.273 411.843L439.225 203.463C439.179 198.532 436.984 196.063 432.158 195.32C431.823 193.94 423.263 194.3 421.342 193.049C415.996 185.355 430.027 189.887 433.036 187.581Z"/><path fill="#FF8C00" transform="scale(4 4)" d="M65.0328 360.704C65.4445 359.128 66.1633 357.9 67.8212 357.371C74.8403 355.135 72.7668 366.098 72.8193 370.083C72.031 367.634 73.3812 351.363 65.9235 359.586C65.8354 360.341 65.6493 361.113 65.4914 361.861L65.2728 361.941L65.0328 360.704Z"/><path fill="#FFA500" transform="scale(4 4)" d="M91.1747 81.5982C104.943 79.9719 119.115 90.6118 121.375 104.426C122.07 111.341 122.493 136.267 121.211 142.294C118.664 154.268 108.683 161.529 97.0026 163.48C78.3127 164.123 64.2405 151.517 65.0428 132.239C65.9179 111.211 61.852 84.9752 91.1747 81.5982ZM97.0026 155.719C107.836 153.943 114.912 145.201 114.071 134.211C113.344 124.707 115.104 114.871 113.703 105.439C112.162 95.0667 101.541 87.8787 91.1747 89.3065C82.5657 90.8089 75.319 96.3084 73.5535 105.08C72.3849 110.885 72.3485 133.949 73.4671 139.739C75.5578 150.563 86.256 157.626 97.0026 155.719Z"/><path fill="#FFA500" transform="scale(4 4)" d="M391.757 81.5982C404.946 79.2345 419.733 92.1835 420.737 105.202C421.359 113.273 420.812 121.551 421.017 129.666C421.481 148.091 415.388 161.806 395.31 164.242C386.781 164.426 380.579 162.155 374.26 156.284C363.283 146.085 365.439 133.76 365.348 120.463C365.217 101.504 368.435 82.2512 391.757 81.5982ZM395.31 156.668C407.105 154.924 413.726 146.429 413.428 134.559C413.011 117.939 418.327 96.1098 398.855 89.6062C396.938 88.9661 393.757 88.3893 391.757 89.3065C367.663 90.1669 373.182 120.033 373.162 136.585C373.229 148.265 383.712 157.731 395.31 156.668Z"/><path fill="#FFA500" transform="scale(4 4)" d="M76.7485 187.581L168.814 187.593C172.051 187.597 189.01 185.871 182.655 194.041C181.014 196.152 176.72 195.331 174.19 195.329L92.9543 195.316C76.4254 195.32 72.7388 191.476 72.781 207.984L72.8193 222.125L72.7905 308.744C72.8095 312.383 73.1379 315.697 72.5907 319.345C71.9661 323.509 65.711 322.405 65.4516 320.241C64.8074 314.868 65.0329 308.836 65.031 303.362L65.0261 226.384C65.0284 213.006 60.5001 190.756 76.7485 187.581Z"/><path fill="#FFA500" transform="scale(4 4)" d="M246.073 81.5982C248.709 81.415 249.921 82.5674 251.325 84.6376L251.325 158.992L263.999 158.962C279.135 158.934 274.113 166.283 270.257 166.3C258.354 166.349 232.444 167.88 222.127 166.293C215.747 158.519 226.652 158.926 231.148 158.941L243.72 158.992L243.72 94.269C240.782 96.7693 234.133 104.911 230.574 104.846C217.585 104.609 244.445 82.6731 246.073 81.5982Z"/><path fill="#FF8C00" transform="scale(4 4)" d="M160.917 347.473L267.086 347.465C270.308 347.445 276.912 346.988 279.637 347.71C283.074 348.621 283.531 353.465 279.3 355.365C276.752 355.515 273.609 355.38 271.011 355.372L176.757 355.366C172.074 355.368 166.252 355.662 161.712 355.208C158.109 354.849 156.593 349.908 160.917 347.473Z"/><path fill="#FF8C00" transform="scale(4 4)" d="M163.546 256.083L266.296 256.079C270.537 256.076 275.106 255.921 279.3 256.083C283.383 259.162 282.279 263.35 277.035 263.954C253.519 264.294 229.113 263.95 205.528 263.95L162.815 263.937C157.145 263.882 155.887 256.465 163.546 256.083Z"/><path fill="#FF8C00" transform="scale(4 4)" d="M117.141 334.311C133.638 332.896 142.675 351.664 128.757 363.997C137.152 371.026 138.016 382.747 129.471 389.93C114.327 402.658 95.6435 380.494 104.345 374.151C108.944 370.798 110.431 380.417 111.712 382.508C122.84 395.437 138.45 371.709 118.479 368.22C115.171 367.641 113.095 365.444 114.76 362.134C116.153 359.366 119.523 360.064 121.997 359.303C138.101 353.624 119.281 332.273 111.55 346.26C110.336 348.458 110.192 352.862 107.146 353.882C100.054 356.256 100.101 337.411 117.141 334.311Z"/><path fill="#FFA500" transform="scale(4 4)" d="M182.241 95.0309C186.71 95.2144 192.286 103.587 195.255 106.674C199.549 111.139 210.792 118.38 205.571 124.494C201.702 129.025 189.494 142.106 184.979 145.611C182.468 147.56 179.099 145.866 179.123 142.602C179.148 139.261 189.818 129.905 192.45 127.205L194.736 124.457C183.119 125.241 167.457 124.606 155.524 124.342C152.065 124.266 150.382 117.609 155.538 117.068C160.164 116.583 164.685 116.75 169.34 116.75L194.736 116.764C190.32 111.665 172.432 99.3902 182.241 95.0309Z"/><path fill="#FFA500" transform="scale(4 4)" d="M310.472 95.0309C315.801 94.5163 331.077 112.562 335.43 117.113C341.168 123.112 321.92 136.779 316.983 142.262C314.039 146.023 308.291 149.73 307.305 142.337C307.031 140.281 318.19 130.437 319.838 128.816C321.295 127.405 322.592 125.955 323.953 124.457C317.993 123.981 287.436 125.58 284.643 123.502C281.916 121.471 283.003 117.366 286.375 116.804C295.437 115.296 314.257 117.223 324.73 116.764L314.958 107.147C311.639 103.889 304.361 98.9264 310.472 95.0309Z"/><path fill="#FF8C00" transform="scale(4 4)" d="M432.158 195.32C429.336 195.011 426.833 195.276 424.021 195.302L329.058 195.319C325.235 195.318 321.518 195.325 317.61 195.241C312.098 195.124 312.259 187.597 317.963 187.547L414.026 187.579C419.725 187.577 427.577 187.283 433.036 187.581C430.027 189.887 415.996 185.355 421.342 193.049C423.263 194.3 431.823 193.94 432.158 195.32Z"/><path fill="#FFA500" transform="scale(4 4)" d="M111.712 250.094C125.141 247.949 134.607 266.178 122.399 278.616C117.421 283.687 112.54 288.828 107.758 294.044C111.637 294.026 123.666 293.199 126.232 295.361C128.696 297.437 126.801 301.249 123.985 301.728C121.178 302.206 118.03 301.937 115.184 301.939L98.9824 301.919C91.4325 299.239 97.6608 293.316 100.387 290.281C105.112 285.021 115.676 275.69 119.032 270.28C124.715 261.122 111.256 251.8 105.39 262.546C102.856 266.995 97.8187 270.007 97.0558 263.371C96.2735 256.566 105.55 250.751 111.712 250.094Z"/><path fill="#FF8C00" transform="scale(4 4)" d="M218.569 287.91L244.371 287.913C248.122 287.909 252.171 287.749 255.883 287.954C260.519 288.21 261.452 295.516 255.739 295.736C249.331 295.984 242.885 295.883 236.462 295.884L198.802 295.878L175.961 295.89C171.642 295.903 167.342 295.957 163.008 295.873C157.272 295.762 156.972 290.813 160.917 287.91C179.926 287.694 199.522 287.909 218.569 287.91Z"/><path fill="#FF8C00" transform="scale(4 4)" d="M163.546 379.329L253.905 379.299C259.785 379.282 262.244 386.388 254.185 386.98L171.978 386.998C168.531 387.002 165.109 387.049 161.639 386.913C158.416 386.786 155.137 379.903 163.546 379.329Z"/><path fill="#FFA500" transform="scale(4 4)" d="M227.937 187.581C241.216 187.142 254.916 187.861 268.228 187.616C272.95 187.529 274.671 194.203 269.142 195.32C264.555 195.483 228.178 195.659 226.681 195.011C223.009 193.419 224.356 188.45 227.937 187.581Z"/></svg>