<?xml version="1.0" encoding="utf-8" ?><svg xmlns="http://www.w3.org/2000/svg" xmlns:xlink="http://www.w3.org/1999/xlink" width="2048" height="2048" viewBox="0 0 2048 2048"><defs><linearGradient id="gradient_0" gradientUnits="userSpaceOnUse" x1="432.14511" y1="432.36166" x2="214.41364" y2="212.96837"><stop offset="0" stop-color="#808080"/><stop offset="1" stop-color="#696969"/></linearGradient></defs><path fill="url(#gradient_0)" transform="scale(4 4)" d="M418.088 72.9876C428.302 72.4361 436.643 75.538 436.662 87.2932L436.693 408.367C436.716 420.906 438.777 438.055 420.267 438.196L102.513 438.179C76.1553 438.232 75.3861 434.468 75.7778 408.416C76.1953 412.246 76.1485 416.42 76.4269 420.34L76.5109 419.846C81.2259 418.639 81.3671 418.537 83.7093 422.032C84.2146 430.313 89.0422 430.294 95.8202 430.3L408.767 430.298C427.347 430.295 428.606 431.71 428.543 414.555L428.525 137.966L257.693 137.966C238.791 138.327 218.596 137.967 199.606 137.967L83.7093 137.966L83.7025 176.211C83.6934 181.834 83.7741 187.566 83.6653 193.18C83.5622 198.498 75.8171 200.185 75.758 191.137L75.7602 99.3205C75.7246 74.136 78.1184 72.9477 100.398 72.971L418.088 72.9876ZM192.519 130.232C193.759 130.09 198.23 130.206 199.779 130.211L428.525 130.232L428.53 100.221C428.531 83.351 432.156 80.6462 413.998 80.7019L338.967 80.7204L99.042 80.7175C80.3276 80.7275 83.693 82.7715 83.6951 100.439L83.7093 130.232L180.639 130.218C183.981 130.215 189.395 130.022 192.519 130.232Z"/><path fill="#A9A9A9" transform="scale(4 4)" d="M105.434 98.2741C112.826 98.6098 121.778 97.4904 128.869 98.968C131.763 99.571 132.644 105.02 127.3 106.677C124.084 106.831 105.7 107.127 103.8 106.16C99.6298 104.036 101.674 99.2364 105.434 98.2741Z"/><path fill="#A9A9A9" transform="scale(4 4)" d="M152.246 98.2741C158.637 98.1382 165.315 98.2175 171.715 98.2958C177.691 98.369 178.451 105.857 172.116 106.677C167.619 106.694 153.013 107.464 149.818 105.769C145.577 103.52 148.201 98.8454 152.246 98.2741Z"/><path fill="#2F4F4F" transform="scale(4 4)" d="M197.917 98.2741C205.265 98.2124 219.217 95.1856 221.644 102.518C220.818 105.411 220.316 106.303 217.312 106.677C213.092 106.451 196.772 107.613 194.28 105.742C191.065 103.326 192.689 98.8854 197.917 98.2741Z"/><path fill="#A9A9A9" transform="scale(4 4)" d="M83.7093 137.966L83.7025 176.211C83.6934 181.834 83.7741 187.566 83.6653 193.18C83.5622 198.498 75.8171 200.185 75.758 191.137L75.7602 99.3205C75.7246 74.136 78.1184 72.9477 100.398 72.971L418.088 72.9876C414.518 73.9066 397.152 72.9766 409.646 73.0039C410.169 73.005 424.264 73.5695 420.546 73.378C416.536 73.1714 415.046 78.8973 418.857 79.9535C417.153 80.9277 392.69 79.7313 388.822 80.2634C380.08 81.4662 353.781 81.1284 345.752 80.2145C344.588 80.0975 339.194 79.8802 338.967 80.7204L99.042 80.7175C80.3276 80.7275 83.693 82.7715 83.6951 100.439L83.7093 130.232L180.639 130.218C183.981 130.215 189.395 130.022 192.519 130.232C190.911 130.431 188.97 130.369 187.561 130.66C198.374 131.036 210.808 130.755 221.744 130.758L272.116 130.861C275.605 130.847 295.987 130.405 298.317 131.065C296.718 131.868 294.179 132.947 298.257 132.507C302.949 139.453 307.551 136.986 316.802 137.978C318.075 138.109 320.412 137.06 321.776 137.146C335.943 137.288 350.123 136.948 364.283 137.276C373.613 137.492 361.725 137.711 358.493 137.383C354.823 137.011 341.692 137.736 336.772 137.675L282.307 137.422C280.966 137.419 272.713 137.369 272.314 137.409C267.111 137.929 260.179 138.396 254.97 137.688C255.679 137.716 257.176 137.668 257.693 137.966C238.791 138.327 218.596 137.967 199.606 137.967L83.7093 137.966Z"/><path fill="#2F4F4F" transform="scale(4 4)" d="M140.601 359.051L294.82 359.047C301.54 359.047 308.346 358.987 315.064 359.118C320.893 359.351 321.353 366.872 315.09 367.339C303.107 367.475 290.871 367.34 278.855 367.34L141.059 367.397C134.384 367.438 134.335 359.694 140.601 359.051Z"/><path fill="#A9A9A9" transform="scale(4 4)" d="M247.169 199.728L265.75 199.733C267.924 199.717 270.693 199.317 272.78 199.601C278.876 200.43 279.301 207.931 272.506 208.18C268.654 208.321 264.702 208.263 260.831 208.256L167.625 208.235L149.177 208.257C146.453 208.262 140.843 208.936 138.75 207.038C135.546 204.133 137.734 199.963 141.671 199.752C145.479 199.657 149.331 199.711 153.134 199.716L247.169 199.728Z"/><path fill="#A9A9A9" transform="scale(4 4)" d="M162.321 235.501C169.876 234.638 167.006 251.479 166.972 257.24C167.05 263.059 164.152 261.993 159.897 263.088C139.157 268.43 139.436 297.592 158.05 304.223C168.09 307.8 167.064 305.461 167.036 317.014L167 330.976C166.062 332.584 165.567 333.003 163.947 333.896C156.351 334.733 158.737 318.254 158.761 312.998C128.304 305.465 129.13 260.002 158.761 255.288C158.74 249.334 156.531 237.56 162.321 235.501Z"/><path fill="#2F4F4F" transform="scale(4 4)" d="M348.344 235.501C350.93 235.554 351.667 236.281 353.297 238.219C353.381 243.874 353.312 249.626 353.297 255.288C383.946 265.889 381.466 307.361 353.297 312.998C353.236 319.404 355.562 330.673 350.261 333.896C341.491 333.303 345.262 308.807 346.436 307.096C346.992 306.285 352.658 305.028 354.123 304.395C371.773 296.765 371.641 272.395 354.44 264.342C350.215 262.367 345.284 263.937 345.225 257.322C345.208 250.73 342.73 238.471 348.344 235.501Z"/><path fill="#A9A9A9" transform="scale(4 4)" d="M75.7778 408.416C75.5779 390.496 75.7849 372.165 75.7869 354.219L75.744 325.354C75.845 323.05 76.955 321.868 79.089 321.366C85.5184 319.854 83.7385 333.791 83.7156 337.088L83.7093 422.032C81.3671 418.537 81.2259 418.639 76.5109 419.846L76.4269 420.34C76.1485 416.42 76.1953 412.246 75.7778 408.416Z"/><path fill="#A9A9A9" transform="scale(4 4)" d="M292.873 251.952C308.314 251.34 308.13 260.193 292.932 260.185L218.688 260.181C216.41 260.126 211.735 260.495 210.021 259.132C208.311 257.883 208.072 254.431 209.717 253.113C212.004 251.281 218.94 251.925 221.897 251.935L292.873 251.952Z"/><path fill="#2F4F4F" transform="scale(4 4)" d="M282.982 304.984C284.958 304.986 311.843 302.677 302.457 312.046C300.575 313.925 293.716 313.009 291.27 313.008L229.625 312.998C226.187 312.98 212.416 313.773 210.324 312.19C207.224 309.843 208.832 305.469 212.464 305.126C215.435 304.847 218.506 304.982 221.49 304.981L282.982 304.984Z"/><path fill="#A9A9A9" transform="scale(4 4)" d="M302.531 199.728L350.688 199.727C355.771 199.727 366.509 199.366 371.653 200.066C374.443 200.446 376.165 206.202 370.837 208.235C366.42 208.463 359.599 208.241 354.995 208.239L323.259 208.232C317.581 208.233 311.882 208.196 306.195 208.333C298.319 208.708 295.958 202.583 302.531 199.728Z"/><path fill="#2F4F4F" transform="scale(4 4)" d="M346.193 359.051L362.054 359.019C364.614 359.015 368.46 358.819 370.868 359.157C375.498 359.806 376.462 366.242 370.837 367.339L354.121 367.351C350.554 367.376 339.063 369.455 342.709 360.708C343.137 359.681 345.155 359.22 346.193 359.051Z"/><path fill="#A9A9A9" transform="scale(4 4)" d="M79.9855 271.06C85.054 271.623 83.7515 277.361 83.7452 281.411L83.7093 295.965C82.401 297.736 82.0362 298.055 79.9855 298.84C78.4042 298.668 76.6968 297.986 76.169 296.337C75.4457 294.076 75.3049 274.287 76.4189 272.706C77.2187 271.571 78.7205 271.31 79.9855 271.06Z"/><path fill="#A9A9A9" transform="scale(4 4)" d="M79.0441 220.289C84.2619 220.704 83.8445 224.262 83.7297 228.496C83.5701 234.38 85.88 244.85 79.9855 246.803C78.4272 246.714 76.8556 246.12 76.2085 244.554C75.2991 242.353 73.0208 222.593 79.0441 220.289Z"/></svg>